<svg width="50" height="52" viewBox="0 0 50 52" fill="none" xmlns="http://www.w3.org/2000/svg">
<path d="M41.4346 0.950195L37.0332 3.53906C36.9576 3.58356 36.8857 3.63357 36.8184 3.6875V0.950195H41.4346Z" fill="#EE1B24" stroke="#EE1B24" stroke-width="1.81818"/>
<path d="M35.5713 0.90918C35.8613 0.910283 36.1301 0.914695 36.3633 0.919922V16.2686L24.4785 4.80176C24.7049 4.57601 24.9236 4.35654 25.1582 4.12207C28.2638 1.57359 31.0405 1.28417 32.6221 1.05762C33.4748 0.935464 34.6148 0.905549 35.5713 0.90918Z" fill="white" stroke="#EE1B24" stroke-width="1.81818"/>
<path d="M23.7617 5.20996C24.2006 4.76719 24.9145 4.76054 25.3613 5.19531L46.3174 25.5908C47.0479 26.3021 46.5442 27.541 45.5244 27.541H4.36133C3.35146 27.541 2.84292 26.3219 3.55371 25.6045L23.7617 5.20996Z" fill="#EE1B24" stroke="#EE1B24" stroke-width="1.36364" stroke-linejoin="round"/>
<path d="M37.2731 20.5424C37.2731 19.5383 36.4591 18.7243 35.4549 18.7243H28.898C28.3342 18.7243 27.8023 18.4627 27.458 18.0162L23.2011 12.4945C22.546 11.6447 21.3012 11.5441 20.5181 12.2777L14.2119 18.1855C13.8449 18.5292 13.6367 19.0096 13.6367 19.5124V49.52C13.6367 50.5341 14.4663 51.3522 15.4803 51.338L35.4803 51.059C36.4744 51.0452 37.2731 50.2353 37.2731 49.241V20.5424Z" fill="white"/>
<path d="M26.3632 19.9956C26.3632 19.7033 26.2693 19.4188 26.0953 19.1839L22.7421 14.6571C22.2522 13.9957 21.2923 13.9158 20.6998 14.4872L15.8712 19.1434C15.6047 19.4004 15.4541 19.7547 15.4541 20.125V46.8589C15.4541 47.612 16.0646 48.2225 16.8177 48.2225H24.9996C25.7527 48.2225 26.3632 47.612 26.3632 46.8589V19.9956Z" fill="#EE1B24" stroke="#EE1B24" stroke-width="0.454545"/>
<path d="M16.667 23.4548V20.7275H18.4852V23.4548H16.667Z" fill="white"/>
<path d="M20 23.4548V20.7275H21.8182V23.4548H20Z" fill="white"/>
<path d="M23.333 23.4548V20.7275H25.1512V23.4548H23.333Z" fill="white"/>
<path d="M16.667 28.5456V25.8184H18.4852V28.5456H16.667Z" fill="white"/>
<path d="M20 28.5456V25.8184H21.8182V28.5456H20Z" fill="white"/>
<path d="M23.333 28.5456V25.8184H25.1512V28.5456H23.333Z" fill="white"/>
<path d="M16.667 33.6365V30.9092H18.4852V33.6365H16.667Z" fill="white"/>
<path d="M20 33.6365V30.9092H21.8182V33.6365H20Z" fill="white"/>
<path d="M23.333 33.6365V30.9092H25.1512V33.6365H23.333Z" fill="white"/>
<path d="M16.667 38.7273V36H18.4852V38.7273H16.667Z" fill="white"/>
<path d="M20 38.7273V36H21.8182V38.7273H20Z" fill="white"/>
<path d="M23.333 38.7273V36H25.1512V38.7273H23.333Z" fill="white"/>
<path d="M16.667 43.8191V41.0918H18.4852V43.8191H16.667Z" fill="white"/>
<path d="M20 43.8191V41.0918H21.8182V43.8191H20Z" fill="white"/>
<path d="M23.333 43.8191V41.0918H25.1512V43.8191H23.333Z" fill="white"/>
<path d="M28.75 24.8185V21.6367H30.5682V24.8185H28.75Z" fill="#EE1B24"/>
<path d="M32.6143 24.8185V21.6367H34.4324V24.8185H32.6143Z" fill="#EE1B24"/>
<path d="M28.75 29.4543V26.2725H30.5682V29.4543H28.75Z" fill="#EE1B24"/>
<path d="M32.6143 29.4543V26.2725H34.4324V29.4543H32.6143Z" fill="#EE1B24"/>
<path d="M28.75 34.091V30.9092H30.5682V34.091H28.75Z" fill="#EE1B24"/>
<path d="M32.6143 34.091V30.9092H34.4324V34.091H32.6143Z" fill="#EE1B24"/>
<path d="M28.75 38.7277V35.5459H30.5682V38.7277H28.75Z" fill="#EE1B24"/>
<path d="M32.6143 38.7277V35.5459H34.4324V38.7277H32.6143Z" fill="#EE1B24"/>
<path d="M28.75 44.0455V39.5H30.5682V44.0455H28.75Z" fill="#EE1B24"/>
<path d="M32.6143 44.0455V39.5H34.4324V44.0455H32.6143Z" fill="#EE1B24"/>
<circle cx="32.2728" cy="5.04039" r="1.36364" fill="#EE1B24"/>
<path d="M13.6367 34.8184H37.2731V46.8184C37.2731 48.8267 35.645 50.4547 33.6367 50.4547H17.2731C15.2648 50.4547 13.6367 48.8267 13.6367 46.8184V34.8184Z" fill="white"/>
<path d="M18.6582 39.1858C18.6582 39.0622 18.7236 39.0004 18.8545 39.0004H19.8254C19.9563 39.0004 20.0218 39.0622 20.0218 39.1858V46.1131C20.0218 46.2949 19.9709 46.4367 19.8691 46.5385C19.7745 46.6331 19.6327 46.6804 19.4436 46.6804H18.1454C17.4909 46.6804 16.9927 46.484 16.6509 46.0913C16.3163 45.6913 16.1491 45.1713 16.1491 44.5313V39.1858C16.1491 39.0622 16.2145 39.0004 16.3454 39.0004H17.3382C17.4618 39.0004 17.5236 39.0622 17.5236 39.1858V44.5749C17.5236 44.8294 17.5818 45.0367 17.6982 45.1967C17.8218 45.3494 17.9818 45.4258 18.1782 45.4258H18.6582V39.1858ZM23.2535 46.7676C22.6644 46.7676 22.1881 46.5785 21.8244 46.2004C21.4681 45.8222 21.2899 45.3276 21.2899 44.7167V40.9204C21.2899 40.3022 21.4681 39.8076 21.8244 39.4367C22.1881 39.0585 22.6644 38.8694 23.2535 38.8694C23.8135 38.8694 24.2644 39.0658 24.6063 39.4585C24.9481 39.844 25.1299 40.3713 25.1517 41.0404C25.1517 41.1713 25.0899 41.2367 24.9663 41.2367H23.9735C23.9153 41.2367 23.8681 41.2222 23.8317 41.1931C23.8026 41.1567 23.7881 41.1094 23.7881 41.0513C23.7808 40.7531 23.7263 40.5313 23.6244 40.3858C23.5226 40.2331 23.3881 40.1567 23.2208 40.1567C23.0463 40.1567 22.9081 40.2149 22.8063 40.3313C22.7117 40.4476 22.6644 40.6113 22.6644 40.8222V44.8149C22.6644 45.0258 22.7117 45.1894 22.8063 45.3058C22.9081 45.4222 23.0463 45.4804 23.2208 45.4804C23.4026 45.4804 23.5481 45.3967 23.6572 45.2294C23.7663 45.0549 23.8244 44.8076 23.8317 44.4876C23.8463 44.364 23.9081 44.3022 24.0172 44.3022H25.0099C25.1481 44.3022 25.2099 44.3713 25.1953 44.5094C25.1735 45.2149 24.9881 45.7676 24.639 46.1676C24.2972 46.5676 23.8353 46.7676 23.2535 46.7676ZM26.2547 46.6913C26.1311 46.6913 26.0693 46.6258 26.0693 46.4949V45.6222C26.0693 45.4913 26.1311 45.4258 26.2547 45.4258H27.782C27.9929 45.4258 28.1565 45.3531 28.2729 45.2076C28.3893 45.0549 28.4475 44.8476 28.4475 44.5858V43.9858H27.9456C27.3202 43.9858 26.8293 43.7931 26.4729 43.4076C26.1238 43.0149 25.9493 42.4949 25.9493 41.8476V39.1858C25.9493 39.0622 26.0147 39.0004 26.1456 39.0004H27.1275C27.2511 39.0004 27.3129 39.0622 27.3129 39.1858V41.8913C27.3129 42.1458 27.3711 42.3494 27.4875 42.5022C27.6111 42.6549 27.7747 42.7313 27.9784 42.7313H28.4475V39.1858C28.4475 39.0622 28.5129 39.0004 28.6438 39.0004H29.6256C29.7565 39.0004 29.822 39.0622 29.822 39.1858V44.5422C29.822 45.1894 29.6438 45.7094 29.2875 46.1022C28.9311 46.4949 28.4402 46.6913 27.8147 46.6913H26.2547ZM31.3152 46.6367C31.1843 46.6367 31.1188 46.5713 31.1188 46.4404V40.9422C31.1188 40.324 31.2934 39.8258 31.6425 39.4476C31.9988 39.0622 32.4643 38.8694 33.0388 38.8694C33.6352 38.8694 34.1152 39.0622 34.4788 39.4476C34.8425 39.8258 35.0243 40.324 35.0243 40.9422V41.9785C35.0243 42.5822 34.8461 43.0694 34.4897 43.4404C34.1334 43.8113 33.6606 43.9967 33.0715 43.9967H32.4825V46.4404C32.4825 46.5713 32.4206 46.6367 32.297 46.6367H31.3152ZM32.9843 42.7422C33.4279 42.7422 33.6497 42.5022 33.6497 42.0222V40.844C33.6497 40.6331 33.5952 40.4658 33.4861 40.3422C33.3843 40.2185 33.2425 40.1567 33.0606 40.1567C32.8861 40.1567 32.7443 40.2185 32.6352 40.3422C32.5334 40.4658 32.4825 40.6331 32.4825 40.844V42.7422H32.9843Z" fill="#EE1B24"/>
</svg>
