<svg width="358" height="334" viewBox="0 0 358 334" fill="none" xmlns="http://www.w3.org/2000/svg">
<g style="mix-blend-mode:multiply" opacity="0.6">
<path d="M167.23 309.933C259.588 309.933 334.46 266.71 334.46 213.39C334.46 160.071 259.588 116.848 167.23 116.848C74.8713 116.848 0 160.071 0 213.39C0 266.71 74.8713 309.933 167.23 309.933Z" fill="#1A3094"/>
</g>
<path d="M285.464 120.853C225.583 86.2728 131.618 83.4968 66.0668 112.248L61.4865 114.23C-16.4774 151.11 -19.8085 217.515 48.9948 257.29C103.284 288.638 185.61 293.912 249.258 273.152L249.932 272.934C345.841 241.407 363.428 165.863 285.464 120.853Z" fill="#452CB6"/>
<path d="M149.127 111.494L133.72 102.552L133.621 10.3711L149.008 19.3135L149.127 111.494Z" fill="#5566E5"/>
<path d="M149.008 19.3125L133.621 10.3701L151.565 0L166.952 8.96228L149.008 19.3125Z" fill="url(#paint0_linear_203_25330)"/>
<path d="M166.952 8.96094L167.071 101.122L149.127 111.492L149.008 19.3112L166.952 8.96094Z" fill="#788EFF"/>
<path d="M128.286 123.529L112.88 114.587L112.82 35.9688L128.227 44.9112L128.286 123.529Z" fill="#5566E5"/>
<path d="M128.227 44.9102L112.82 35.9677L130.785 25.5977L146.191 34.5599L128.227 44.9102Z" fill="url(#paint1_linear_203_25330)"/>
<path d="M146.191 34.5586L146.23 113.157L128.286 123.527L128.227 44.9088L146.191 34.5586Z" fill="#788EFF"/>
<path d="M107.43 135.564L92.2611 126.622L92.043 59.5234L107.449 68.4857L107.43 135.564Z" fill="#5566E5"/>
<path d="M110.007 49.1523L125.414 58.1146L107.449 68.4847L92.043 59.5224L110.007 49.1523Z" fill="url(#paint2_linear_203_25330)"/>
<path d="M125.414 58.1172L125.394 125.195L107.43 135.566L107.45 68.4873L125.414 58.1172Z" fill="#788EFF"/>
<path d="M86.59 147.601L71.1836 138.659L71.2629 82.3672L86.6495 91.3096L86.59 147.601Z" fill="#5566E5"/>
<path d="M86.6483 91.3086L71.2617 82.3662L89.2259 71.9961L104.612 80.9385L86.6483 91.3086Z" fill="url(#paint3_linear_203_25330)"/>
<path d="M104.614 80.9375L104.534 137.229L86.5898 147.599L86.6493 91.3076L104.614 80.9375Z" fill="#788EFF"/>
<path d="M65.7288 159.637L50.3422 150.695L50.1836 105.844L65.59 114.786L65.7288 159.637Z" fill="#5566E5"/>
<path d="M65.59 114.785L50.1836 105.843L68.1478 95.4727L83.5542 104.415L65.59 114.785Z" fill="url(#paint4_linear_203_25330)"/>
<path d="M83.5541 104.414L83.6929 149.265L65.7286 159.635L65.5898 114.784L83.5541 104.414Z" fill="#788EFF"/>
<path d="M44.8908 171.672L29.4844 162.73V128.328L44.8908 137.271V171.672Z" fill="#5566E5"/>
<path d="M44.8908 137.27L29.4844 128.327L47.4486 117.957L62.855 126.899L44.8908 137.27Z" fill="url(#paint5_linear_203_25330)"/>
<path d="M62.8548 126.898V161.3L44.8906 171.67V137.269L62.8548 126.898Z" fill="#788EFF"/>
<path d="M24.0509 183.708L8.64453 174.765L8.68419 151.031L24.0906 159.974L24.0509 183.708Z" fill="#5566E5"/>
<path d="M24.09 159.973L8.68359 151.03L26.6478 140.66L42.0542 149.603L24.09 159.973Z" fill="url(#paint6_linear_203_25330)"/>
<path d="M42.0546 149.602L41.9952 173.336L24.0508 183.706L24.0904 159.972L42.0546 149.602Z" fill="#788EFF"/>
<path d="M186.521 30.0198L177.52 24.7852L178.154 25.1619L187.156 30.3767L186.521 30.0198Z" fill="#4247BE"/>
<path d="M127.396 120.575L118.395 115.36L129.538 95.75L138.54 100.985L127.396 120.575Z" fill="#E14C4C"/>
<path d="M138.537 100.984L129.535 95.7497L140.381 89.5039L149.383 94.7385L138.537 100.984Z" fill="#FC0000"/>
<path d="M103.939 144.803L94.9375 139.568L104.237 123.527L113.239 128.742L103.939 144.803Z" fill="#E14C4C"/>
<path d="M113.236 128.743L104.234 123.529L118.392 115.359L127.394 120.574L113.236 128.743Z" fill="#FC0000"/>
<path d="M88.3926 153.787L79.3906 148.552L94.9358 139.57L103.938 144.805L88.3926 153.787Z" fill="#FC0000"/>
<path d="M81.7519 165.266L72.75 160.031L79.3924 148.551L88.3943 153.785L81.7519 165.266Z" fill="#E14C4C"/>
<path d="M51.7715 200.065L42.7695 194.85L57.938 168.598L66.9201 173.832L51.7715 200.065Z" fill="#E14C4C"/>
<path d="M66.9196 173.832L57.9375 168.597L72.749 160.031L81.751 165.266L66.9196 173.832Z" fill="#FC0000"/>
<path d="M193.899 7.17578L171.394 21.5709L177.382 25.021L140.383 89.5018L149.385 94.7364L186.404 30.2358L193.879 34.5583L193.899 7.17578Z" fill="#E14C4C"/>
<path opacity="0.96" d="M270.929 333.44L357.879 283.24C346.659 276.76 337.209 262.59 334.319 249.04C333.76 246.323 332.633 243.754 331.013 241.502C329.394 239.25 327.317 237.365 324.919 235.97L259.219 198.04C250.192 192.856 242.594 185.511 237.107 176.665C231.62 167.82 228.414 157.75 227.779 147.36C226.779 129.55 213.259 112.04 202.779 106L115.839 156.2C126.129 162.14 137.469 178.76 138.759 196.26C139.44 206.637 142.653 216.689 148.116 225.538C153.579 234.386 161.127 241.762 170.099 247.02L237.929 286.16C240.324 287.559 242.398 289.445 244.017 291.696C245.637 293.948 246.765 296.515 247.329 299.23C250.209 312.79 259.669 326.96 270.879 333.44H270.929Z" fill="url(#paint7_linear_203_25330)"/>
<path d="M189.76 183.351C203.713 183.351 215.024 172.046 215.024 158.101C215.024 144.156 203.713 132.852 189.76 132.852C175.807 132.852 164.496 144.156 164.496 158.101C164.496 172.046 175.807 183.351 189.76 183.351Z" fill="#E4D6FF"/>
<path d="M151.863 161.624C152.576 183.391 190.393 216.912 190.393 216.912C190.393 216.912 225.873 180.938 225.161 159.171C224.448 137.404 207.42 120.346 187.185 121.019C166.95 121.692 151.15 139.897 151.863 161.624ZM166.831 158.814C166.435 146.942 175.82 136.929 187.7 136.494C199.659 136.098 209.598 145.477 210.034 157.35C210.43 169.302 201.124 179.236 189.165 179.671C177.286 180.067 167.267 170.766 166.831 158.814Z" fill="#FC0000"/>
<path d="M220.737 220.748L200.332 234.512L201.221 235.83L221.626 222.066L220.737 220.748Z" fill="#1A2E35"/>
<path d="M266.064 211.547C266.153 211.679 253.925 220.312 238.662 230.607C223.399 240.903 210.903 249.138 210.725 248.874C210.636 248.741 222.863 240.108 238.127 229.813C253.39 219.518 265.885 211.282 266.064 211.547Z" fill="#1A2E35"/>
<path d="M271.661 219.14C271.75 219.273 259.359 228.016 243.769 238.531C228.261 248.991 215.521 257.392 215.342 257.128C215.253 256.995 227.644 248.252 243.233 237.737C258.912 227.354 271.571 219.008 271.661 219.14Z" fill="#1A2E35"/>
<path d="M277.315 226.111C277.404 226.244 264.932 235.042 249.261 245.612C233.589 256.183 220.849 264.584 220.67 264.319C220.581 264.187 233.054 255.388 248.725 244.818C264.396 234.248 277.137 225.847 277.315 226.111Z" fill="#1A2E35"/>
<path d="M255.403 252.255C255.492 252.387 249.141 257.056 241.142 262.452C233.062 267.902 226.525 272.119 226.346 271.854C226.257 271.722 232.608 267.053 240.607 261.657C248.695 256.394 255.314 252.123 255.403 252.255Z" fill="#1A2E35"/>
<path d="M304.015 247.526C304.105 247.644 302.846 247.476 300.836 248.06C298.825 248.644 296.33 250.338 294.28 253.372C292.141 256.287 290.955 260.718 290.367 265.443C289.659 270.258 289.368 275.876 286.591 280.947C285.262 283.438 283.215 285.725 280.782 287C278.349 288.275 275.709 288.775 273.368 289.422C270.938 289.95 268.718 290.506 266.855 291.537C264.993 292.568 263.609 293.984 262.733 295.574C260.982 298.755 260.851 301.833 261.203 303.802C261.555 305.77 262.271 306.72 262.15 306.811C262.15 306.811 261.435 305.861 260.873 303.864C260.431 301.777 260.353 298.671 262.135 295.281C263.01 293.69 264.546 291.975 266.528 290.853C268.511 289.731 270.852 289.084 273.162 288.647C275.592 288.119 278.022 287.591 280.335 286.406C282.647 285.222 284.454 283.116 285.782 280.625C288.44 275.645 288.82 270.145 289.528 265.33C290.236 260.515 291.422 256.084 293.682 253.078C295.942 250.072 298.646 248.407 300.657 247.823C301.767 247.544 302.516 247.538 303.056 247.504C303.685 247.588 304.015 247.526 304.015 247.526Z" fill="#1A2E35"/>
<path d="M324.737 268.771C324.826 268.89 311.898 279.004 295.904 291.056C279.79 303.199 266.713 312.867 266.534 312.63C266.445 312.511 279.373 302.396 295.367 290.344C311.481 278.201 324.647 268.652 324.737 268.771Z" fill="#1A2E35"/>
<path d="M321.493 271.218C321.373 271.308 315.585 264.128 308.785 255.104C301.985 246.08 296.558 238.628 296.798 238.447C296.918 238.356 302.706 245.537 309.506 254.561C316.306 263.584 321.733 271.037 321.493 271.218Z" fill="#1A2E35"/>
<path d="M261.928 294.508C261.928 294.508 261.718 294.48 261.659 294.152C261.601 293.824 261.542 293.496 261.934 293.015C262.205 292.624 262.717 292.052 263.556 292.165C264.305 292.159 264.931 292.99 265.018 293.855C265.015 294.602 264.562 295.502 263.692 295.599C262.943 295.605 262.344 295.311 262.076 294.955C261.808 294.599 261.78 294.062 261.81 293.852C261.841 293.643 262.082 293.462 262.082 293.462C262.171 293.58 261.989 294.09 262.557 294.593C262.736 294.83 263.245 295.005 263.575 294.943C263.905 294.88 264.296 294.399 264.268 293.862C264.241 293.324 263.972 292.968 263.553 292.912C263.133 292.855 262.772 293.127 262.532 293.309C261.81 293.852 262.048 294.418 261.928 294.508Z" fill="#1A2E35"/>
<path d="M292.215 252.883C292.215 252.883 292.126 252.764 292.277 252.464C292.428 252.164 292.579 251.864 293.149 251.62C293.599 251.467 294.259 251.342 294.827 251.845C295.395 252.348 295.45 253.423 294.939 253.995C294.516 254.686 293.616 254.992 292.928 254.579C292.24 254.167 292.123 253.511 292.184 253.092C292.156 252.555 292.428 252.164 292.668 251.983C292.909 251.802 293.118 251.83 293.118 251.83C293.208 251.948 292.727 252.311 292.844 252.967C292.903 253.295 293.051 253.742 293.35 253.889C293.65 254.036 294.1 253.883 294.371 253.492C294.642 253.101 294.614 252.564 294.435 252.326C294.167 251.97 293.748 251.914 293.297 252.067C292.607 252.401 292.425 252.911 292.215 252.883Z" fill="#1A2E35"/>
<defs>
<linearGradient id="paint0_linear_203_25330" x1="133.601" y1="9.65626" x2="166.952" y2="9.65626" gradientUnits="userSpaceOnUse">
<stop offset="0.58" stop-color="#92B1FF"/>
<stop offset="0.59" stop-color="#BCC4FF"/>
<stop offset="0.6" stop-color="#E5D7FF"/>
</linearGradient>
<linearGradient id="paint1_linear_203_25330" x1="112.82" y1="35.2539" x2="146.171" y2="35.2539" gradientUnits="userSpaceOnUse">
<stop offset="0.58" stop-color="#92B1FF"/>
<stop offset="0.59" stop-color="#BCC4FF"/>
<stop offset="0.6" stop-color="#E5D7FF"/>
</linearGradient>
<linearGradient id="paint2_linear_203_25330" x1="92.043" y1="58.8086" x2="125.414" y2="58.8086" gradientUnits="userSpaceOnUse">
<stop offset="0.58" stop-color="#92B1FF"/>
<stop offset="0.59" stop-color="#BCC4FF"/>
<stop offset="0.6" stop-color="#E5D7FF"/>
</linearGradient>
<linearGradient id="paint3_linear_203_25330" x1="71.2617" y1="81.6524" x2="104.612" y2="81.6524" gradientUnits="userSpaceOnUse">
<stop offset="0.58" stop-color="#92B1FF"/>
<stop offset="0.59" stop-color="#BCC4FF"/>
<stop offset="0.6" stop-color="#E5D7FF"/>
</linearGradient>
<linearGradient id="paint4_linear_203_25330" x1="50.1836" y1="105.129" x2="83.5542" y2="105.129" gradientUnits="userSpaceOnUse">
<stop offset="0.58" stop-color="#92B1FF"/>
<stop offset="0.59" stop-color="#BCC4FF"/>
<stop offset="0.6" stop-color="#E5D7FF"/>
</linearGradient>
<linearGradient id="paint5_linear_203_25330" x1="29.4844" y1="127.613" x2="62.855" y2="127.613" gradientUnits="userSpaceOnUse">
<stop offset="0.58" stop-color="#92B1FF"/>
<stop offset="0.59" stop-color="#BCC4FF"/>
<stop offset="0.6" stop-color="#E5D7FF"/>
</linearGradient>
<linearGradient id="paint6_linear_203_25330" x1="8.68359" y1="150.316" x2="42.0542" y2="150.316" gradientUnits="userSpaceOnUse">
<stop offset="0.58" stop-color="#92B1FF"/>
<stop offset="0.59" stop-color="#BCC4FF"/>
<stop offset="0.6" stop-color="#E5D7FF"/>
</linearGradient>
<linearGradient id="paint7_linear_203_25330" x1="294.429" y1="327.86" x2="170.389" y2="108.06" gradientUnits="userSpaceOnUse">
<stop stop-color="#C0D6FF"/>
<stop offset="0.08" stop-color="#C3D9FF"/>
<stop offset="0.13" stop-color="#CCE2FF"/>
<stop offset="0.18" stop-color="#DCF2FF"/>
<stop offset="0.21" stop-color="#E9FFFF"/>
<stop offset="0.26" stop-color="#D8EEFF"/>
<stop offset="0.31" stop-color="#CBE1FF"/>
<stop offset="0.39" stop-color="#C2D8FF"/>
<stop offset="0.51" stop-color="#C0D6FF"/>
<stop offset="0.62" stop-color="#D0E6FF"/>
<stop offset="0.75" stop-color="#E9FFFF"/>
<stop offset="1" stop-color="#C0D6FF"/>
</linearGradient>
</defs>
</svg>
